<svg width="120" height="28" viewBox="0 0 120 28" fill="none" xmlns="http://www.w3.org/2000/svg">
<path d="M4.96833 11.3957C4.96833 14.5982 7.55006 17.2008 10.7268 17.2008V22.2094H1.36925C0.614242 22.2094 0 21.5902 0 20.829V1.95914C0 1.19802 0.614242 0.582031 1.36925 0.582031H10.7268V5.58735C7.55006 5.58735 4.96833 8.18675 4.96833 11.3957Z" fill="#7F6AFF"/>
<path d="M21.4539 12.9307V19.871C21.4539 23.925 18.1939 27.2114 14.1758 27.2114H10.7271V22.2028C13.907 22.2028 16.4888 19.6001 16.4888 16.3976C16.4888 13.1951 13.907 10.5893 10.7271 10.5893V5.58398H14.1661C18.1907 5.58398 21.4539 8.87355 21.4539 12.9307Z" fill="#F8F8F8"/>
<path d="M39.9741 21.8351H37.2515V20.1C36.7302 20.9998 35.5943 22.2092 33.1565 22.2092C29.4744 22.2092 27.1006 19.3099 27.1006 15.7978C27.1006 11.889 29.8679 9.40571 33.1118 9.40571C35.3992 9.40571 36.6852 10.6344 37.1203 11.3375V5.58398H39.9741V21.8351ZM29.9543 15.7946C29.9543 17.836 31.4131 19.5066 33.6142 19.5066C34.6603 19.5066 35.5976 19.0906 36.2726 18.4101C36.9478 17.7296 37.3412 16.7847 37.2965 15.7301C37.2965 14.6755 36.8836 13.7757 36.2278 13.1371C35.5751 12.4792 34.6603 12.0825 33.6364 12.0825C31.3042 12.0825 29.9543 13.8821 29.9543 15.772V15.7946Z" fill="#7F6AFF"/>
<path d="M46.9385 13.0308C46.9162 12.3954 46.5898 11.7343 45.4797 11.7343C44.5199 11.7343 44.0625 12.3503 44.0625 12.9437C44.085 13.7112 44.955 14.1305 46.0876 14.4595C48.0038 14.9851 50.0737 15.556 50.0962 18.1489C50.1409 20.629 48.0711 22.2125 45.5661 22.2125C43.7138 22.2125 41.2088 21.245 40.9912 18.3263H43.8449C43.9536 19.6228 45.0639 19.884 45.6108 19.884C46.5033 19.884 47.268 19.2906 47.2458 18.4779C47.2458 17.4459 46.353 17.1588 44.152 16.3913C42.5398 15.8849 41.2343 14.9851 41.2121 13.2501C41.2121 10.8796 43.1956 9.40576 45.5022 9.40576C47.1146 9.40576 49.5107 10.1314 49.7505 13.0308H46.9418H46.9385Z" fill="#7F6AFF"/>
<path d="M55.7349 9.77967H58.4158V11.2955C58.6781 10.7472 59.8329 9.40555 61.9028 9.40555C62.8817 9.40555 63.9726 9.69258 64.8429 10.6343C65.1052 10.9213 65.4092 11.4245 65.5626 11.7308C65.7802 11.3567 66.0425 10.9633 66.4329 10.5892C67.1751 9.88611 68.218 9.40234 69.4817 9.40234C70.4831 9.40234 71.7466 9.66678 72.6617 10.6117C73.7495 11.7534 73.9702 12.7435 73.9702 15.2236V21.835H71.1164V15.3333C71.1164 14.5657 71.0525 13.7304 70.6365 13.0918C70.3328 12.4984 69.7665 12.105 68.762 12.105C67.7575 12.105 67.0631 12.5436 66.6921 13.2015C66.3209 13.8594 66.2792 14.498 66.2792 15.2236V21.835H63.4258V15.2236C63.4258 14.5205 63.3616 13.84 63.0545 13.224C62.7058 12.5887 62.1173 12.1275 61.0936 12.105C60.0474 12.105 59.3947 12.6113 59.046 13.224C58.6973 13.8594 58.5886 14.6076 58.5886 15.3107V21.8318H55.7349V9.77967Z" fill="#F8F8F8"/>
<path d="M77.8125 16.7622C77.9439 18.694 79.6425 19.7712 81.2773 19.7486C82.6722 19.7486 83.6094 19.1132 84.1535 18.1231H87.0934C86.5271 19.4616 85.6762 20.4742 84.6748 21.1547C83.6736 21.8578 82.4963 22.2093 81.255 22.2093C77.5727 22.2093 74.9365 19.2003 74.9365 15.8398C74.9365 12.4793 77.5952 9.40576 81.21 9.40576C82.9953 9.40576 84.5661 10.0863 85.6762 11.2505C87.1351 12.7663 87.6789 14.6562 87.4421 16.7622H77.8125ZM84.6301 14.5659C84.5214 13.4242 83.3216 11.8214 81.2325 11.8439C79.1179 11.8439 77.9661 13.3823 77.8542 14.5659H84.6301Z" fill="#F8F8F8"/>
<path d="M101.342 21.8351H98.6197V20.1C98.0984 20.9998 96.9624 22.2092 94.5247 22.2092C90.8426 22.2092 88.4688 19.3099 88.4688 15.7978C88.4688 11.889 91.2361 9.40571 94.4799 9.40571C96.7674 9.40571 98.0534 10.6344 98.4885 11.3375V5.58398H101.342V21.8351ZM91.3225 15.7946C91.3225 17.836 92.7813 19.5066 94.9823 19.5066C96.0285 19.5066 96.9658 19.0906 97.6407 18.4101C98.3157 17.7296 98.7094 16.7847 98.6644 15.7301C98.6644 14.6755 98.2518 13.7757 97.596 13.1371C96.9433 12.4792 96.0285 12.0825 95.0046 12.0825C92.6724 12.0825 91.3225 13.8821 91.3225 15.772V15.7946Z" fill="#F8F8F8"/>
<path d="M102.952 5.58398H105.805V8.15436H102.952V5.58398ZM102.952 9.77981H105.805V21.8351H102.952V9.77981Z" fill="#F8F8F8"/>
<path d="M120 21.8352H117.146V20.1001C116.385 21.5062 114.795 22.2093 113.115 22.2093C109.283 22.2093 107.037 19.2003 107.037 15.7979C107.037 11.9987 109.759 9.40576 113.115 9.40576C115.294 9.40576 116.621 10.57 117.146 11.5375V9.77989H120V21.8352ZM109.89 15.8624C109.89 17.3556 110.959 19.5293 113.528 19.5293C115.118 19.5293 116.164 18.694 116.708 17.5974C116.992 17.0718 117.121 16.5009 117.165 15.9075C117.188 15.3367 117.079 14.7433 116.839 14.2176C116.337 13.0759 115.227 12.089 113.505 12.089C111.196 12.089 109.89 13.9789 109.89 15.843V15.8656V15.8624Z" fill="#F8F8F8"/>
</svg>
